<?xml version="1.0" encoding="utf-8"?>
<!-- Generator: Adobe Illustrator 24.0.2, SVG Export Plug-In . SVG Version: 6.00 Build 0)  -->
<svg version="1.1" id="Layer_1" xmlns="http://www.w3.org/2000/svg" xmlns:xlink="http://www.w3.org/1999/xlink" x="0px" y="0px"
	 viewBox="0 0 454.1 188.4" enable-background="new 0 0 454.1 188.4" xml:space="preserve">
<g>
	<path d="M417,19.6c4.1-6.3,9.2-11.4,15.4-15.6c3.4-2.2,5.5-2.2,7.3,1.9c2.9,6.5,5.1,13.1,3.1,20.3c-0.7,2.6-0.2,4.9,1.4,7
		c1.9,2.5,3.6,5.2,5.3,7.9c4.3,6.5,6,13.2,3.1,20.8c-1.3,3.3-1.4,6.8-0.7,10.3c0.7,3.3,0.5,6.6,0,10c-0.9,5.4-3.7,9.2-9.2,10.7
		c-4.3,1.1-8.1,3.1-10.9,6.7c-0.7,0.9-1.7,1.6-2.9,1.8c-4,0.5-14.2-8.5-14.1-12.6c0-0.7,0-1.3,0.1-2c0.2-12-0.5-13.2-11.6-18
		c-2.3-1-4.5-2.2-6.1-4.2c-2.2-2.8-4.9-2.5-7.7-1.3c-2.8,1.2-4.7,3-4.3,6.5c0.9,8.1,1.2,16.3,1.2,24.4c0,1,0.3,2.1,0.8,2.8
		c10.5,15.1,14.4,32.9,19.7,50c4,13.1,11.5,20.2,25,21.1c2.1,0.2,4.3,0.7,6.4,1c6,1.1,9.7,4.9,11.4,10.6c2.2,7.1,1.1,8.6-6.3,8.6
		c-7.3,0-14.7,0-22,0.1c-3,0-5.5-0.5-7.7-2.7c-3.3-3.2-7.5-4.9-11.6-6.7c-4.5-2-8.7-4.5-11.4-8.7c-3.8-5.8-8.9-10.4-13.6-15.2
		c-9.6-9.7-19.5-19.1-28.5-29.4c-6.5-7.4-10.8-15.6-10.7-25.6c0-3.2-0.8-4.5-4-2.9c-1,0.5-2.2,1-3.3,1c-9.5,0.2-14.2,5.8-17.6,14.1
		c-3,7.2-7.2,13.9-10.8,20.9c-2.4,4.6-3.9,9.5-3.9,14.8c0,7.9,1.9,10.8,9.3,13.4c4.6,1.7,9.1,3.4,11.6,8c2.9,5.2,2,6.9-3.8,6.9
		c-7.7,0.1-15.3,0-23,0.1c-3,0-5-1-6.4-3.7c-1.9-3.5-4.2-6.8-6.3-10.2c-3.5-5.6-4.9-11.4-2.5-18.1c2-5.8,1.1-12,0.3-17.8
		c-1.3-8.8,0.1-16.6,5.8-23.4c1.9-2.2,2.1-3.5-1.3-4.1c-14-2.6-27.2-7.6-40.1-13.7c-0.2-0.1-0.3-0.1-0.5-0.2
		c-10.8-4.2-12.9-3.2-15.9,7.7c-2.6,9.5-5.4,18.9-7.4,28.5c-2.3,10.6,0.4,20.8,3.8,30.9c1.3,3.9,5.3,3.7,8.3,4.6
		c6.6,2,12.4,4.8,15.3,11.6c2.3,5.3,2,6.1-3.7,6.1c-5.8,0-11.7-0.3-17.5,0.1c-5.5,0.4-9.6-1.7-14.1-4.8
		c-16.3-10.9-20.9-27.1-22.2-45.2c-0.8-11.2-6.7-20-13.9-28.1c-1.4-1.6-2.7-2.2-4.7-0.9c-7.1,4.5-15.1,7-22.9,9.9
		c-16.4,6.2-30.6,15.5-41.3,29.5c-3.9,5.1-6.6,10.8-7.6,17.2c-0.9,6,0.8,8.6,6.6,10.3c6.5,1.9,9,5,9.8,11.6c0.3,2.8-0.7,4.2-3.5,4.2
		c-9.2,0-18.3,0-27.5-0.1c-2,0-3.3-1.2-4.5-2.7c-4.4-5.4-6.4-11.6-6.6-18.5c-0.3-11.7,1.1-23.3,3.1-34.8c1.3-7.1,4.6-12.9,11.4-16.1
		c20-9.4,30.5-27.1,39.9-45.8c1.9-3.8,0.2-4.3-3-4c-9.8,0.9-18.2,5.2-26,10.7C87.1,74.2,78,82.5,68.9,90.9
		c-9.9,9.2-21.1,15.6-34.9,16.6c-23.4,1.6-35.1-11.9-34-34.3c0.4-7.6,3-14.7,8.2-20.5c4-4.5,9-6.9,15.2-5.1c5.2,1.5,6.5,4.1,4.4,8.9
		c-0.9,2-2.2,3.7-3.2,5.6c-1.2,2.2-2.5,4.3-3.4,6.7c-3.6,10,1.2,17.2,11.8,18.1c11.2,1,20.4-3.7,28.9-10.4
		C72.3,68.5,81.2,59,89.2,48.8c12.6-16.1,28.9-24.6,48.8-27.2c7.7-1,14.6-4.4,22-6.5c14-3.9,28.3-6.3,42.9-5.9
		c6.9,0.2,13.2-0.9,19.8-3.6c16.5-6.7,33.8-6.7,51.1-3.2c13.5,2.7,26.9,6.1,40.4,9.3c7.6,1.8,15.9,1.2,23.7-0.5
		c15-3.3,30-6.3,45.4-6.6c10.1-0.2,19.9,1.5,29.2,5.7C418.9,13.2,419,13.2,417,19.6z"/>
</g>
</svg>
