<?xml version="1.0" encoding="utf-8"?>
<!-- Generator: Adobe Illustrator 24.0.2, SVG Export Plug-In . SVG Version: 6.00 Build 0)  -->
<svg version="1.1" id="Layer_1" xmlns="http://www.w3.org/2000/svg" xmlns:xlink="http://www.w3.org/1999/xlink" x="0px" y="0px"
	 viewBox="0 0 367.6 512" enable-background="new 0 0 367.6 512" xml:space="preserve">
<g>
	<path d="M288,0c-0.7,0-1.3,0-2,0c-3.6,1.9-5.7,5-7.5,8.4c-3.1,5.8-5.3,11.9-6.9,18.2c-1.1,4.3-3.4,6.3-7.8,7.1
		c-12.3,2.1-21.2,9.1-27.5,19.8c-3.9,6.6-6.9,13.7-9.7,20.8c-7.5,19.4-13.2,39.5-20.2,59.1c-3.3,9.4-3.5,9.2-13.5,9.3
		c-11.9,0.1-11.1-1.9-11.2,11.3c-0.1,4.2,1.3,6.3,5.7,6.1c1.4-0.1,3.4-0.7,3.9,1.1c0.4,1.5-1.3,2.6-2.3,3.6
		c-6.3,6.6-14.1,10.5-22.8,12.8c-10,2.7-20.1,4.8-29.9,8.1c-24.9,8.4-48,20.1-65.9,40c-11,12.1-18.5,26.5-24.9,41.4
		c-19.5,45.4-28.6,93.5-35.9,142c-3.4,22.7-5.8,45.6-7.7,68.5C1,489-0.2,500.5,0,512c58.3,0,116.7,0,175,0c0.6-2.4-0.4-4.6-1.2-6.8
		c-3.6-9.3-10.9-14.1-20.1-16.2c-3.6-0.8-4.1-1.9-1.8-4.8c3.8-4.9,6.4-10.5,8.4-16.4c8.6-25.4,11.9-51.8,16-78.1
		c3.2-20.1,7.9-39.5,18.3-57.2c7.7-13.1,17.3-24.4,29.4-33.6c4.4-3.3,4.5-3.3,5.2,2.3c0.5,3.8,0.6,7.6,0.9,11.4
		c1.5,25,1.4,49.9-0.9,74.8c-1.8,19.4-2.5,38.8-0.8,58.3c1.9,22.4,6.1,44.5,11.7,66.2c23.3,0,46.7,0,70,0
		c-1.7-11.6-11.1-21.2-22.3-23.4c-6.7-1.3-13.3-0.4-19.8,1.1c-3.1,0.7-4.5,0.2-4.7-3.4c-2.1-28.1-0.7-56,5-83.5
		c6.6-31.8,12.8-63.7,16.1-96c1.4-13.4,5.4-25.5,11.9-37.1c6.3-11.2,11.7-22.8,17.9-34.1c4.9-8.9,5.8-17.9,2.2-27.4
		c-1.4-3.7-2.8-7.5-4.5-11.1c-5-10.3-10.4-20.5-15.3-30.9c-2.6-5.4-2-5.9,3.7-6.1c8.6-0.2,8.6-0.2,8.7-8.7c0-1.2,0-2.3,0-3.5
		c0.1-3.6-1.3-5.6-5.3-5.3c-2.7,0.2-5.3,0-8,0.1c-3.6,0.1-4.7-1.5-3.8-5c3-12,14.6-21.9,27-23.4c11.8-1.4,23.3,0.2,34.7,2.3
		c3.4,0.6,5.3-0.1,6.6-3.4c2.1-5.3,4.4-10.4,6.8-15.6c1-2.2,1-4-0.5-6c-16.7-21.7-34.9-41.7-59.7-54.4c-2.6-1.3-4.1-3-4.7-5.9
		c-1.6-7.5-3.4-14.9-6.7-21.9C293.7,5.5,291.7,2.1,288,0z"/>
</g>
</svg>
